# Made in Blockbench 5.1.6
mtllib EVILVERITY.mtl

o Head
v 0.15379235113268694 1.979487097922741 0.34848247539683846
v 0.19613409572234605 2.0622637517220106 -0.14279667361205237
v 0.2253483537100845 1.4905384929802261 0.2722656779050004
v 0.2676900982997436 1.5733151467794955 -0.21901347110389044
v -0.29690435628748213 1.9984101119622888 -0.19604888041316235
v -0.33924610087714113 1.9156334581630194 0.2952302685957285
v -0.22534835371008446 1.5094615070197739 -0.2722656779050004
v -0.26769009829974355 1.4266848532205045 0.21901347110389047
vt 0.125 0.875
vt 0.25 0.875
vt 0.25 0.75
vt 0.125 0.75
vt 0 0.875
vt 0.125 0.875
vt 0.125 0.75
vt 0 0.75
vt 0.375 0.875
vt 0.5 0.875
vt 0.5 0.75
vt 0.375 0.75
vt 0.25 0.875
vt 0.375 0.875
vt 0.375 0.75
vt 0.25 0.75
vt 0.25 0.875
vt 0.125 0.875
vt 0.125 1
vt 0.25 1
vt 0.375 1
vt 0.25 1
vt 0.25 0.875
vt 0.375 0.875
vn 0.08468348917931821 0.16555330759853887 -0.9825582980177817
vn 0.9860769040196562 0.12770727951944277 0.10650441360221989
vn -0.08468348917931821 -0.16555330759853887 0.9825582980177817
vn -0.9860769040196562 -0.12770727951944277 -0.10650441360221989
vn -0.1431120051547951 0.9778972098850301 0.15243359498367612
vn 0.1431120051547951 -0.9778972098850301 -0.15243359498367612
usemtl m_1407a3e9-6223-228b-27be-80c3ea313f91
f 4/4/1 7/3/1 5/2/1 2/1/1
f 3/8/2 4/7/2 2/6/2 1/5/2
f 8/12/3 3/11/3 1/10/3 6/9/3
f 7/16/4 8/15/4 6/14/4 5/13/4
f 6/20/5 1/19/5 2/18/5 5/17/5
f 7/24/6 4/23/6 3/22/6 8/21/6
o Hat Layer
v 0.17748864518536017 2.008863697354176 0.38727923497820343
v 0.2251231078487267 2.1019874328783543 -0.1654098076567988
v 0.2579891480849324 1.4587965167938468 0.30153533779988556
v 0.3056236107482989 1.551920252318025 -0.2511537048351166
v -0.3295451506623299 2.030152088148668 -0.22531854030804743
v -0.3771796133256964 1.9370283526244896 0.3273705023269548
v -0.24904464776275773 1.4800849075883384 -0.3110624374863653
v -0.29667911042612427 1.3869611720641601 0.24162660514863687
vt 0.625 0.875
vt 0.75 0.875
vt 0.75 0.75
vt 0.625 0.75
vt 0.5 0.875
vt 0.625 0.875
vt 0.625 0.75
vt 0.5 0.75
vt 0.875 0.875
vt 1 0.875
vt 1 0.75
vt 0.875 0.75
vt 0.75 0.875
vt 0.875 0.875
vt 0.875 0.75
vt 0.75 0.75
vt 0.75 0.875
vt 0.625 0.875
vt 0.625 1
vt 0.75 1
vt 0.875 1
vt 0.75 1
vt 0.75 0.875
vt 0.875 0.875
vn 0.08468348917931821 0.16555330759853887 -0.9825582980177817
vn 0.9860769040196562 0.12770727951944277 0.10650441360221989
vn -0.08468348917931821 -0.16555330759853887 0.9825582980177817
vn -0.9860769040196562 -0.12770727951944277 -0.10650441360221989
vn -0.1431120051547951 0.9778972098850301 0.15243359498367612
vn 0.1431120051547951 -0.9778972098850301 -0.15243359498367612
usemtl m_1407a3e9-6223-228b-27be-80c3ea313f91
f 12/28/7 15/27/7 13/26/7 10/25/7
f 11/32/8 12/31/8 10/30/8 9/29/8
f 16/36/9 11/35/9 9/34/9 14/33/9
f 15/40/10 16/39/10 14/38/10 13/37/10
f 14/44/11 9/43/11 10/42/11 13/41/11
f 15/48/12 12/47/12 11/46/12 16/45/12
o Body
v 0.25 1.5 0.125
v 0.25 1.5 -0.125
v 0.25 0.75 0.125
v 0.25 0.75 -0.125
v -0.25 1.5 -0.125
v -0.25 1.5 0.125
v -0.25 0.75 -0.125
v -0.25 0.75 0.125
vt 0.3125 0.6875
vt 0.4375 0.6875
vt 0.4375 0.5
vt 0.3125 0.5
vt 0.25 0.6875
vt 0.3125 0.6875
vt 0.3125 0.5
vt 0.25 0.5
vt 0.5 0.6875
vt 0.625 0.6875
vt 0.625 0.5
vt 0.5 0.5
vt 0.4375 0.6875
vt 0.5 0.6875
vt 0.5 0.5
vt 0.4375 0.5
vt 0.4375 0.6875
vt 0.3125 0.6875
vt 0.3125 0.75
vt 0.4375 0.75
vt 0.5625 0.75
vt 0.4375 0.75
vt 0.4375 0.6875
vt 0.5625 0.6875
vn 0 0 -1
vn 1 0 0
vn 0 0 1
vn -1 0 0
vn 0 1 0
vn 0 -1 0
usemtl m_1407a3e9-6223-228b-27be-80c3ea313f91
f 20/52/13 23/51/13 21/50/13 18/49/13
f 19/56/14 20/55/14 18/54/14 17/53/14
f 24/60/15 19/59/15 17/58/15 22/57/15
f 23/64/16 24/63/16 22/62/16 21/61/16
f 22/68/17 17/67/17 18/66/17 21/65/17
f 23/72/18 20/71/18 19/70/18 24/69/18
o Body Layer
v 0.265625 1.515625 0.140625
v 0.265625 1.515625 -0.140625
v 0.265625 0.734375 0.140625
v 0.265625 0.734375 -0.140625
v -0.265625 1.515625 -0.140625
v -0.265625 1.515625 0.140625
v -0.265625 0.734375 -0.140625
v -0.265625 0.734375 0.140625
vt 0.3125 0.4375
vt 0.4375 0.4375
vt 0.4375 0.25
vt 0.3125 0.25
vt 0.25 0.4375
vt 0.3125 0.4375
vt 0.3125 0.25
vt 0.25 0.25
vt 0.5 0.4375
vt 0.625 0.4375
vt 0.625 0.25
vt 0.5 0.25
vt 0.4375 0.4375
vt 0.5 0.4375
vt 0.5 0.25
vt 0.4375 0.25
vt 0.4375 0.4375
vt 0.3125 0.4375
vt 0.3125 0.5
vt 0.4375 0.5
vt 0.5625 0.5
vt 0.4375 0.5
vt 0.4375 0.4375
vt 0.5625 0.4375
vn 0 0 -1
vn 1 0 0
vn 0 0 1
vn -1 0 0
vn 0 1 0
vn 0 -1 0
usemtl m_1407a3e9-6223-228b-27be-80c3ea313f91
f 28/76/19 31/75/19 29/74/19 26/73/19
f 27/80/20 28/79/20 26/78/20 25/77/20
f 32/84/21 27/83/21 25/82/21 30/81/21
f 31/88/22 32/87/22 30/86/22 29/85/22
f 30/92/23 25/91/23 26/90/23 29/89/23
f 31/96/24 28/95/24 27/94/24 32/93/24
o Right Arm
v 0.4889968520993582 1.4823330496358882 0.15406079207532736
v 0.498488062837565 1.528089583533369 -0.09153288969277434
v 0.5244710354967739 0.7456000140399076 0.01817106997016582
v 0.5339622462349807 0.7913565479373884 -0.22742261179793588
v 0.24894830101352378 1.5181929471085267 -0.10302044192444043
v 0.23945709027531697 1.472436413211046 0.14257323984366127
v 0.28442248441093954 0.781459911512546 -0.23891016402960197
v 0.27493127367273273 0.7357033776150652 0.0066835177384997335
vt 0.6875 0.6875
vt 0.75 0.6875
vt 0.75 0.5
vt 0.6875 0.5
vt 0.625 0.6875
vt 0.6875 0.6875
vt 0.6875 0.5
vt 0.625 0.5
vt 0.8125 0.6875
vt 0.875 0.6875
vt 0.875 0.5
vt 0.8125 0.5
vt 0.75 0.6875
vt 0.8125 0.6875
vt 0.8125 0.5
vt 0.75 0.5
vt 0.75 0.6875
vt 0.6875 0.6875
vt 0.6875 0.75
vt 0.75 0.75
vt 0.8125 0.75
vt 0.75 0.75
vt 0.75 0.6875
vt 0.8125 0.6875
vn 0.03796484295282718 0.18302613558992356 -0.9823747270724069
vn 0.9981590472961651 0.03958654569936931 0.04595020892666437
vn -0.03796484295282718 -0.18302613558992356 0.9823747270724069
vn -0.9981590472961651 -0.03958654569936931 -0.04595020892666437
vn -0.047298911196554286 0.9823107141279743 0.1811862961402154
vn 0.047298911196554286 -0.9823107141279743 -0.1811862961402154
usemtl m_1407a3e9-6223-228b-27be-80c3ea313f91
f 36/100/25 39/99/25 37/98/25 34/97/25
f 35/104/26 36/103/26 34/102/26 33/101/26
f 40/108/27 35/107/27 33/106/27 38/105/27
f 39/112/28 40/111/28 38/110/28 37/109/28
f 38/116/29 33/115/29 34/114/29 37/113/29
f 39/120/30 36/119/30 35/118/30 40/117/30
o Right Arm Layer
v 0.5032608410547768 1.495440410952098 0.17295940507750374
v 0.5139384531352593 1.546916511586764 -0.1033334869116107
v 0.5402131154270847 0.728010165539618 0.03140761121796043
v 0.5508907275075674 0.779486266174284 -0.244885280771154
v 0.23320622108321296 1.5357827956088164 -0.1162569831722351
v 0.22252860900273033 1.4843066949741504 0.16003590881687935
v 0.270158495455521 0.7683525501963364 -0.25780877703177835
v 0.2594808833750384 0.7168764495616704 0.018484114957336095
vt 0.6875 0.4375
vt 0.75 0.4375
vt 0.75 0.25
vt 0.6875 0.25
vt 0.625 0.4375
vt 0.6875 0.4375
vt 0.6875 0.25
vt 0.625 0.25
vt 0.8125 0.4375
vt 0.875 0.4375
vt 0.875 0.25
vt 0.8125 0.25
vt 0.75 0.4375
vt 0.8125 0.4375
vt 0.8125 0.25
vt 0.75 0.25
vt 0.75 0.4375
vt 0.6875 0.4375
vt 0.6875 0.5
vt 0.75 0.5
vt 0.8125 0.5
vt 0.75 0.5
vt 0.75 0.4375
vt 0.8125 0.4375
vn 0.03796484295282718 0.18302613558992356 -0.9823747270724069
vn 0.9981590472961651 0.03958654569936931 0.04595020892666437
vn -0.03796484295282718 -0.18302613558992356 0.9823747270724069
vn -0.9981590472961651 -0.03958654569936931 -0.04595020892666437
vn -0.047298911196554286 0.9823107141279743 0.1811862961402154
vn 0.047298911196554286 -0.9823107141279743 -0.1811862961402154
usemtl m_1407a3e9-6223-228b-27be-80c3ea313f91
f 44/124/31 47/123/31 45/122/31 42/121/31
f 43/128/32 44/127/32 42/126/32 41/125/32
f 48/132/33 43/131/33 41/130/33 46/129/33
f 47/136/34 48/135/34 46/134/34 45/133/34
f 46/140/35 41/139/35 42/138/35 45/137/35
f 47/144/36 44/143/36 43/142/36 48/141/36
o Left Arm
v -0.21889998582219655 1.4884142517196233 0.11632925192226129
v -0.25372842176284405 1.495441997693492 -0.13113304992683855
v -0.3073122790593372 0.7436945261238296 0.10762312114701805
v -0.3421407149999848 0.7507222720976984 -0.13983918070208176
v -0.49953007776800246 1.524209315931124 -0.09572136673418852
v -0.4647016418273549 1.5171815699572553 0.1517409351149113
v -0.5879423710051431 0.7794895903353303 -0.10442749750943174
v -0.5531139350644956 0.7724618443614615 0.1430348043396681
vt 0.5625 0.1875
vt 0.625 0.1875
vt 0.625 0
vt 0.5625 0
vt 0.5 0.1875
vt 0.5625 0.1875
vt 0.5625 0
vt 0.5 0
vt 0.6875 0.1875
vt 0.75 0.1875
vt 0.75 0
vt 0.6875 0
vt 0.625 0.1875
vt 0.6875 0.1875
vt 0.6875 0
vt 0.625 0
vt 0.625 0.1875
vt 0.5625 0.1875
vt 0.5625 0.25
vt 0.625 0.25
vt 0.6875 0.25
vt 0.625 0.25
vt 0.625 0.1875
vt 0.6875 0.1875
vn -0.1393137437625901 0.028110983895474978 -0.9898492073963994
vn 0.9832066240206335 -0.11506927295052786 -0.1416467327706001
vn 0.1393137437625901 -0.028110983895474978 0.9898492073963994
vn -0.9832066240206335 0.11506927295052786 0.1416467327706001
vn 0.11788305764952092 0.9929596341277249 0.011608174366990975
vn -0.11788305764952092 -0.9929596341277249 -0.011608174366990975
usemtl m_1407a3e9-6223-228b-27be-80c3ea313f91
f 52/148/37 55/147/37 53/146/37 50/145/37
f 51/152/38 52/151/38 50/150/38 49/149/38
f 56/156/39 51/155/39 49/154/39 54/153/39
f 55/160/40 56/159/40 54/158/40 53/157/40
f 54/164/41 49/163/41 50/162/41 53/161/41
f 55/168/42 52/167/42 51/166/42 56/165/42
o Left Arm Layer
v -0.19951868229980993 1.5016920544896502 0.12976379331277363
v -0.23870067273303838 1.5095982687102525 -0.14863129626746366
v -0.2916148210884981 0.7259423403273652 0.12069490708856193
v -0.3307968115217266 0.7338485545479675 -0.15770018249167536
v -0.5152275357388415 1.5419615017275885 -0.10879315267573239
v -0.47604554530561305 1.5340552875069862 0.1696019369045049
v -0.6073236745275297 0.7662117875653034 -0.1178620388999441
v -0.5681416840943012 0.7583055733447011 0.1605330506802932
vt 0.8125 0.1875
vt 0.875 0.1875
vt 0.875 0
vt 0.8125 0
vt 0.75 0.1875
vt 0.8125 0.1875
vt 0.8125 0
vt 0.75 0
vt 0.9375 0.1875
vt 1 0.1875
vt 1 0
vt 0.9375 0
vt 0.875 0.1875
vt 0.9375 0.1875
vt 0.9375 0
vt 0.875 0
vt 0.875 0.1875
vt 0.8125 0.1875
vt 0.8125 0.25
vt 0.875 0.25
vt 0.9375 0.25
vt 0.875 0.25
vt 0.875 0.1875
vt 0.9375 0.1875
vn -0.1393137437625901 0.028110983895474978 -0.9898492073963994
vn 0.9832066240206335 -0.11506927295052786 -0.1416467327706001
vn 0.1393137437625901 -0.028110983895474978 0.9898492073963994
vn -0.9832066240206335 0.11506927295052786 0.1416467327706001
vn 0.11788305764952092 0.9929596341277249 0.011608174366990975
vn -0.11788305764952092 -0.9929596341277249 -0.011608174366990975
usemtl m_1407a3e9-6223-228b-27be-80c3ea313f91
f 60/172/43 63/171/43 61/170/43 58/169/43
f 59/176/44 60/175/44 58/174/44 57/173/44
f 64/180/45 59/179/45 57/178/45 62/177/45
f 63/184/46 64/183/46 62/182/46 61/181/46
f 62/188/47 57/187/47 58/186/47 61/185/47
f 63/192/48 60/191/48 59/190/48 64/189/48
o Right Leg
v 0.24097398060499295 0.7258751931273022 0.12541647522724172
v 0.2461349590076332 0.785512622567675 -0.1173112349989952
v 0.2799441500489469 -0.0016708548799536475 -0.05251068380850937
v 0.2851051284515871 0.057966574560419204 -0.2952383940347463
v -0.003473980604992967 0.7741248068726979 -0.1254164752272417
v -0.00863495900763319 0.7144873774323252 0.11731123499899518
v 0.03549618883896097 0.046578758865442195 -0.30334363426299277
v 0.030335210436320745 -0.01305867057493066 -0.060615924036755864
vt 0.0625 0.6875
vt 0.125 0.6875
vt 0.125 0.5
vt 0.0625 0.5
vt 0 0.6875
vt 0.0625 0.6875
vt 0.0625 0.5
vt 0 0.5
vt 0.1875 0.6875
vt 0.25 0.6875
vt 0.25 0.5
vt 0.1875 0.5
vt 0.125 0.6875
vt 0.1875 0.6875
vt 0.1875 0.5
vt 0.125 0.5
vt 0.125 0.6875
vt 0.0625 0.6875
vt 0.0625 0.75
vt 0.125 0.75
vt 0.1875 0.75
vt 0.125 0.75
vt 0.125 0.6875
vt 0.1875 0.6875
vn 0.020643913610560904 0.23854971776149145 -0.9709108409049477
vn 0.9984357584505046 0.04555126277990805 0.03242096091298598
vn -0.020643913610560904 -0.23854971776149145 0.9709108409049477
vn -0.9984357584505046 -0.04555126277990805 -0.03242096091298598
vn -0.05196022592527193 0.9700613973430078 0.23723621204766815
vn 0.05196022592527193 -0.9700613973430078 -0.23723621204766815
usemtl m_1407a3e9-6223-228b-27be-80c3ea313f91
f 68/196/49 71/195/49 69/194/49 66/193/49
f 67/200/50 68/199/50 66/198/50 65/197/50
f 72/204/51 67/203/51 65/202/51 70/201/51
f 71/208/52 72/207/52 70/206/52 69/205/52
f 70/212/53 65/211/53 66/210/53 69/209/53
f 71/216/54 68/215/54 67/214/54 72/213/54
o Right Leg Layer
v 0.2554400996505347 0.7380168016016994 0.1448003504438917
v 0.261246200353505 0.8051089097221188 -0.1282683235606248
v 0.2960340261546534 -0.019843665072525385 -0.04054044021834896
v 0.3018401268576237 0.04724844304789408 -0.31360911422286547
v -0.019563856710699462 0.7922976170652697 -0.13738671881740208
v -0.025369957413669708 0.7252055089448503 0.13568195518711443
v 0.02103006979341922 0.034437150391044946 -0.3227275094796428
v 0.015223969090448968 -0.03265495772937452 -0.049658835475126284
vt 0.0625 0.4375
vt 0.125 0.4375
vt 0.125 0.25
vt 0.0625 0.25
vt 0 0.4375
vt 0.0625 0.4375
vt 0.0625 0.25
vt 0 0.25
vt 0.1875 0.4375
vt 0.25 0.4375
vt 0.25 0.25
vt 0.1875 0.25
vt 0.125 0.4375
vt 0.1875 0.4375
vt 0.1875 0.25
vt 0.125 0.25
vt 0.125 0.4375
vt 0.0625 0.4375
vt 0.0625 0.5
vt 0.125 0.5
vt 0.1875 0.5
vt 0.125 0.5
vt 0.125 0.4375
vt 0.1875 0.4375
vn 0.020643913610560904 0.23854971776149145 -0.9709108409049477
vn 0.9984357584505046 0.04555126277990805 0.03242096091298598
vn -0.020643913610560904 -0.23854971776149145 0.9709108409049477
vn -0.9984357584505046 -0.04555126277990805 -0.03242096091298598
vn -0.05196022592527193 0.9700613973430078 0.23723621204766815
vn 0.05196022592527193 -0.9700613973430078 -0.23723621204766815
usemtl m_1407a3e9-6223-228b-27be-80c3ea313f91
f 76/220/55 79/219/55 77/218/55 74/217/55
f 75/224/56 76/223/56 74/222/56 73/221/56
f 80/228/57 75/227/57 73/226/57 78/225/57
f 79/232/58 80/231/58 78/230/58 77/229/58
f 78/236/59 73/235/59 74/234/59 77/233/59
f 79/240/60 76/239/60 75/238/60 80/237/60
o Left Leg
v 0.007302935178774464 0.77797023535385 0.12074072828613354
v 0.005044771575999491 0.7133048904705248 -0.12074072828613353
v -0.017979808713302466 0.05396717757324854 0.3148550121130241
v -0.02023797231607744 -0.010698167310076667 0.07337355554075702
v -0.24480293517877444 0.7220297646461501 -0.12074072828613353
v -0.24254477157599946 0.7866951095294753 0.12074072828613354
v -0.27008567907085135 -0.0019732931344514162 0.07337355554075702
v -0.26782751546807637 0.0626920517488738 0.3148550121130241
vt 0.3125 0.1875
vt 0.375 0.1875
vt 0.375 0
vt 0.3125 0
vt 0.25 0.1875
vt 0.3125 0.1875
vt 0.3125 0
vt 0.25 0
vt 0.4375 0.1875
vt 0.5 0.1875
vt 0.5 0
vt 0.4375 0
vt 0.375 0.1875
vt 0.4375 0.1875
vt 0.4375 0
vt 0.375 0
vt 0.375 0.1875
vt 0.3125 0.1875
vt 0.3125 0.25
vt 0.375 0.25
vt 0.4375 0.25
vt 0.375 0.25
vt 0.375 0.1875
vt 0.4375 0.1875
vn -0.009032654411099883 -0.2586613795333009 -0.9659258262890683
vn 0.9993908270190958 -0.03489949670250101 1.734723475976807e-18
vn 0.009032654411099883 0.2586613795333009 0.9659258262890683
vn -0.9993908270190958 0.03489949670250101 -1.734723475976807e-18
vn 0.033710325189435904 0.9653374103741355 -0.2588190451025207
vn -0.033710325189435904 -0.9653374103741355 0.2588190451025207
usemtl m_1407a3e9-6223-228b-27be-80c3ea313f91
f 84/244/61 87/243/61 85/242/61 82/241/61
f 83/248/62 84/247/62 82/246/62 81/245/62
f 88/252/63 83/251/63 81/250/63 86/249/63
f 87/256/64 88/255/64 86/254/64 85/253/64
f 86/260/65 81/259/65 82/258/65 85/257/65
f 87/264/66 84/263/66 83/262/66 88/261/66
o Left Leg Layer
v 0.023586275907206203 0.7965499118101772 0.13178927174217336
v 0.021045841854084354 0.7238013988164363 -0.1398773669016271
v -0.002749915647040597 0.042380059955383916 0.33399165072851766
v -0.005290349700162438 -0.03036845303835694 0.06232501208471719
v -0.2600328282450364 0.7336168822640148 -0.1398773669016271
v -0.2574923941919145 0.8063653952577556 0.13178927174217336
v -0.2863690197992832 -0.020552969590778528 0.06232501208471719
v -0.2838285857461613 0.05219554340296233 0.33399165072851766
vt 0.0625 0.1875
vt 0.125 0.1875
vt 0.125 0
vt 0.0625 0
vt 0 0.1875
vt 0.0625 0.1875
vt 0.0625 0
vt 0 0
vt 0.1875 0.1875
vt 0.25 0.1875
vt 0.25 0
vt 0.1875 0
vt 0.125 0.1875
vt 0.1875 0.1875
vt 0.1875 0
vt 0.125 0
vt 0.125 0.1875
vt 0.0625 0.1875
vt 0.0625 0.25
vt 0.125 0.25
vt 0.1875 0.25
vt 0.125 0.25
vt 0.125 0.1875
vt 0.1875 0.1875
vn -0.009032654411099883 -0.2586613795333009 -0.9659258262890683
vn 0.9993908270190958 -0.03489949670250101 1.734723475976807e-18
vn 0.009032654411099883 0.2586613795333009 0.9659258262890683
vn -0.9993908270190958 0.03489949670250101 -1.734723475976807e-18
vn 0.033710325189435904 0.9653374103741355 -0.2588190451025207
vn -0.033710325189435904 -0.9653374103741355 0.2588190451025207
usemtl m_1407a3e9-6223-228b-27be-80c3ea313f91
f 92/268/67 95/267/67 93/266/67 90/265/67
f 91/272/68 92/271/68 90/270/68 89/269/68
f 96/276/69 91/275/69 89/274/69 94/273/69
f 95/280/70 96/279/70 94/278/70 93/277/70
f 94/284/71 89/283/71 90/282/71 93/281/71
f 95/288/72 92/287/72 91/286/72 96/285/72